<svg width="470" height="115" viewBox="0 0 470 115" fill="none" xmlns="http://www.w3.org/2000/svg">
<path d="M193.045 77.8613C184.05 88.4837 173.605 92.7043 163.015 92.7043C142.995 92.7043 127.037 78.2966 127.037 59.3778C127.037 40.6041 142.27 26.0508 162.289 26.0508C172.88 26.0508 183.324 30.2714 192.319 40.895L178.972 50.3546C174.185 43.5151 168.673 40.7495 162.289 40.7495C151.989 40.7495 143.575 49.0452 143.575 59.3778C143.575 69.8554 152.715 78.0057 163.015 78.0057C169.398 78.0057 175.056 75.2423 179.988 68.9825L193.045 77.8613Z" fill="#228800"/>
<path d="M200.438 0H217.121V91.3963H200.438V0Z" fill="#228800"/>
<path d="M261.219 26.0508C281.239 26.0508 297.197 40.6041 297.197 59.3778C297.197 78.1522 281.239 92.7043 261.219 92.7043C241.201 92.7043 225.098 78.1522 225.098 59.3778C225.098 40.6041 241.201 26.0508 261.219 26.0508ZM261.219 78.5876C271.664 78.5876 281.239 70.1465 281.239 59.3778C281.239 48.6087 271.664 40.1675 261.219 40.1675C250.63 40.1675 241.201 48.6087 241.201 59.3778C241.201 70.1465 250.63 78.5876 261.219 78.5876Z" fill="#228800"/>
<path d="M294.549 27.3604H314.134L329.947 61.5616L347.065 27.3604H365.2L329.947 95.3257L294.549 27.3604Z" fill="#228800"/>
<path d="M423.064 84.1188C416.68 89.5034 407.832 92.7043 398.548 92.7043C378.528 92.7043 362.426 78.1522 362.426 59.3778C362.426 40.6041 377.078 26.0508 397.097 26.0508C417.117 26.0508 430.172 40.6041 430.172 59.3778V64.1804H379.108C381.429 72.6211 389.553 78.5876 398.548 78.5876C404.061 78.5876 408.848 76.8417 413.199 72.33L423.064 84.1188ZM412.619 50.5001C410.153 44.6791 404.641 40.1675 397.097 40.1675C389.699 40.1675 383.606 44.2427 380.559 50.5001H412.619Z" fill="#228800"/>
<path d="M438.354 55.4483C438.354 40.1675 449.959 27.3604 468.818 27.3604V42.3501C460.694 42.3501 454.892 47.2992 454.892 57.4865V91.3961H438.354V55.4483Z" fill="#228800"/>
<path d="M51.6589 29.995C51.6589 15.6946 40.0892 4.08301 25.8239 4.08301C11.562 4.08301 0 15.6798 0 29.9802C0 44.2805 11.5618 55.907 25.8304 55.907H51.6588L51.6589 29.995Z" fill="#228800"/>
<path d="M58.9043 29.995C58.9043 15.6946 70.4742 4.08301 84.7394 4.08301C99.0013 4.08301 110.563 15.6798 110.563 29.9802C110.563 44.2805 99.0014 55.9069 84.7328 55.9069L58.9044 55.9069L58.9043 29.995Z" fill="#228800"/>
<path d="M58.9043 89.0877C58.9043 103.402 70.4708 115 84.7417 115C98.9969 115 110.563 103.411 110.563 89.0963C110.563 74.7954 98.997 63.1758 84.7328 63.1758L58.9043 63.1758V89.0877Z" fill="#228800"/>
<path d="M51.659 89.0877C51.659 103.402 40.0925 115 25.8217 115C11.5666 115 0 103.411 0 89.0962C0 74.7953 11.5664 63.1758 25.8305 63.1758H51.659V89.0877ZM25.8217 107.693C36.073 107.693 44.4131 99.3506 44.4131 89.0962V70.4487H25.8453C15.5894 70.4487 7.24492 78.8463 7.24492 89.0962C7.24492 99.3506 15.5781 107.693 25.8217 107.693Z" fill="#228800"/>
</svg>
