<svg width="24" height="24" viewBox="0 0 24 24" fill="none" xmlns="http://www.w3.org/2000/svg">
<path d="M10.8156 6.25977C10.8156 3.27533 8.39338 0.852051 5.40678 0.852051C2.42088 0.852051 0.000244141 3.27224 0.000244141 6.25668C0.000244141 9.2411 2.42084 11.6675 5.40814 11.6675H10.8156L10.8156 6.25977Z" fill="#228800"/>
<path d="M12.3325 6.25977C12.3325 3.27533 14.7548 0.852051 17.7414 0.852051C20.7273 0.852051 23.1479 3.27224 23.1479 6.25668C23.1479 9.2411 20.7273 11.6675 17.74 11.6675L12.3325 11.6675L12.3325 6.25977Z" fill="#228800"/>
<path d="M12.3325 18.5923C12.3325 21.5797 14.7541 24 17.7419 24C20.7264 24 23.1479 21.5814 23.1479 18.5941C23.1479 15.6095 20.7264 13.1846 17.74 13.1846L12.3325 13.1846V18.5923Z" fill="#228800"/>
<path d="M10.8154 18.5923C10.8154 21.5796 8.39383 24 5.40608 24C2.4216 24 0 21.5814 0 18.5941C0 15.6095 2.42156 13.1846 5.40791 13.1846H10.8154V18.5923ZM5.40608 22.4751C7.55231 22.4751 9.29841 20.7341 9.29841 18.5941V14.7024H5.41102C3.26382 14.7024 1.51681 16.4549 1.51681 18.5941C1.51681 20.7341 3.26146 22.4751 5.40608 22.4751Z" fill="#228800"/>
</svg>
