<svg preserveAspectRatio="none" width="100%" height="100%" overflow="visible" style="display: block;" viewBox="0 0 15.9 19.5607" fill="none" xmlns="http://www.w3.org/2000/svg">
<path id="vector" d="M3.75 4.35H7.95M3.75 7.95H7.95M3.75 11.55H7.95M12.1 4.35001H12.15M12.1 7.95H12.15M12.1 11.55H12.15M15.15 17.75V1.95C15.15 1.63174 15.0236 1.32651 14.7986 1.10147C14.5735 0.876428 14.2682 0.75 13.95 0.75H1.95C1.63174 0.75 1.32651 0.876428 1.10147 1.10147C0.876432 1.32651 0.75 1.63174 0.75 1.95V17.75L3.15 15.35L5.55 17.75L7.95 15.35L10.35 17.75L12.75 15.35L15.15 17.75Z" stroke="var(--stroke-0, #5A5A5A)" stroke-width="1.5" stroke-linecap="round"/>
</svg>
