<svg width="24" height="24" viewBox="0 0 24 24" fill="none" xmlns="http://www.w3.org/2000/svg">
<path d="M10.401 19.8006C10.5026 20.1468 10.7136 20.4507 11.0024 20.6669C11.2912 20.8831 11.6423 21 12.0031 21C12.3638 21 12.7149 20.8831 13.0037 20.6669C13.2925 20.4507 13.5035 20.1468 13.6051 19.8006M12.0011 4.80007V3M12.0011 4.80007C13.5924 4.80007 15.1186 5.43223 16.2439 6.55749C17.3691 7.68275 18.0013 9.20893 18.0013 10.8003C18.0013 16.4373 19.2013 17.4005 19.2013 17.4005H4.80078C4.80078 17.4005 6.00083 15.8677 6.00083 10.8003C6.00083 9.20893 6.63299 7.68275 7.75825 6.55749C8.88351 5.43223 10.4097 4.80007 12.0011 4.80007Z" stroke="black" stroke-width="1.5" stroke-linecap="round" stroke-linejoin="round"/>
<circle cx="18" cy="6" r="4" fill="#E70000"/>
</svg>
